<?xml version="1.0" encoding="UTF-8"?>
<svg version="1.1" xmlns="http://www.w3.org/2000/svg" width="600" height="360">
<path d="M0 0 C198 0 396 0 600 0 C600 118.8 600 237.6 600 360 C402 360 204 360 0 360 C0 241.2 0 122.4 0 0 Z " fill="#FEFEFE" transform="translate(0,0)"/>
<path d="M0 0 C0.86496094 0.40089844 1.72992188 0.80179687 2.62109375 1.21484375 C10.26365651 5.04167126 16.6597066 10.26301204 23.265625 15.60839844 C27.74585967 19.20318132 32.3454231 22.63449005 37 26 C37.98226562 26.73283203 37.98226562 26.73283203 38.984375 27.48046875 C42.783002 30.03321579 45.96096645 30.67458855 50.375 29.9140625 C58.73471715 27.00308956 65.95383492 20.84026799 72.87670898 15.48120117 C78.84617676 10.8697235 84.74008223 6.75655058 91.5 3.375 C92.13405762 3.056521 92.76811523 2.73804199 93.42138672 2.40991211 C105.02864536 -3.12250534 115.90879274 -3.19330004 128 1 C138.72348096 5.97714306 144.54045102 13.21997636 149 24 C152.00794021 33.05008715 152.51013929 41.76795701 152.4375 51.25 C152.43479095 51.93220612 152.43208191 52.61441223 152.42929077 53.31729126 C152.3664605 63.7484916 151.64991603 73.16781576 148 83 C147.61457031 84.07636719 147.22914063 85.15273437 146.83203125 86.26171875 C141.33422111 100.44215461 132.80155209 111.45831959 121 121 C120.34 120.67 119.68 120.34 119 120 C119.56847656 119.41734375 120.13695312 118.8346875 120.72265625 118.234375 C130.02692754 108.35538244 135.79623887 98.20982078 139 85 C139.17805176 84.27111572 139.35610352 83.54223145 139.53955078 82.79125977 C141.01542629 76.21660759 141.3122413 69.91116962 141.25 63.1875 C141.23984863 61.60255737 141.23984863 61.60255737 141.22949219 59.9855957 C141.03173502 45.04228224 139.51718263 31.23260834 129.09765625 19.77734375 C123.01703924 14.62523809 115.54649408 15.45658231 108 16 C104.25 16.91666667 104.25 16.91666667 101 19 C100.21882812 19.44085938 99.43765625 19.88171875 98.6328125 20.3359375 C92.99121029 23.68819389 88.08515489 27.54701397 83.1875 31.875 C76.556334 37.7197426 69.63295896 42.55370741 62 47 C61.20078125 47.47566406 60.4015625 47.95132813 59.578125 48.44140625 C53.30344453 51.7275984 46.93305678 52.21101429 40 51 C28.57979507 47.31530099 19.05364144 39.66401757 9.74658203 32.35839844 C-4.5274541 21.25441423 -4.5274541 21.25441423 -21.75390625 17.71875 C-26.35544302 18.29494243 -29.07493403 21.04850357 -32.1875 24.25 C-43.87441214 41.9818667 -39.2842312 72.96305067 -35.4453125 92.87744141 C-28.93731825 124.54867579 -19.7225455 156.29582249 -5.875 185.5625 C-5.40868164 186.55467529 -4.94236328 187.54685059 -4.46191406 188.5690918 C1.50809669 201.41616012 1.50809669 201.41616012 12 210 C16.48655522 202.6009316 19.82980041 194.68660376 23.31445312 186.77929688 C30.21803524 171.48835116 39.36354037 159.09654706 55 152 C55.66 152.33 56.32 152.66 57 153 C55.948125 153.67482422 55.948125 153.67482422 54.875 154.36328125 C37.56513486 166.09918167 32.39558409 183.71271215 26.890625 202.93774414 C24.6189162 210.69422141 22.38818577 217.73127044 15 222 C10.82491991 223.01731971 7.49746269 222.81864684 3.69921875 220.7421875 C1.30174331 218.96167897 -0.84459733 217.06640041 -3 215 C-3.64582031 214.39414062 -4.29164063 213.78828125 -4.95703125 213.1640625 C-16.01785968 201.76532689 -23.32409068 186.26106988 -30 172 C-30.31501465 171.33661621 -30.6300293 170.67323242 -30.95458984 169.98974609 C-50.28644421 129.04305609 -72.23755974 68.47455433 -56.5390625 22.76953125 C-52.0349183 11.22007293 -44.64299349 2.96934801 -33.4375 -2.5 C-22.63405475 -6.31699012 -10.11799402 -4.98862456 0 0 Z " fill="#06179F" transform="translate(254,71)"/>
<path d="M0 0 C9.55116925 3.43342685 17.58630543 9.98620459 25.47290039 16.21801758 C34.49300544 23.33395444 43.99728016 29.01633859 54.640625 33.421875 C54.186875 33.855 53.733125 34.288125 53.265625 34.734375 C51.44038166 36.52985842 51.44038166 36.52985842 49.640625 39.421875 C48.650625 39.421875 47.660625 39.421875 46.640625 39.421875 C46.640625 41.731875 46.640625 44.041875 46.640625 46.421875 C47.39988281 46.61523438 48.15914063 46.80859375 48.94140625 47.0078125 C49.93527344 47.26820313 50.92914063 47.52859375 51.953125 47.796875 C52.93925781 48.05210937 53.92539062 48.30734375 54.94140625 48.5703125 C57.640625 49.421875 57.640625 49.421875 60.640625 51.421875 C45.39461551 50.42213667 34.26811113 43.04331688 22.140625 34.421875 C10.02493555 25.13235285 10.02493555 25.13235285 -4.359375 21.421875 C-14.11550829 40.08578217 -8.40838306 68.70244855 -3.3515625 88.44140625 C-2.42105193 92.07703151 -1.71689812 95.72847593 -1.046875 99.421875 C2.27460448 116.13471618 7.4020274 132.32180148 13.265625 148.296875 C13.49523926 148.92449738 13.72485352 149.55211975 13.96142578 150.19876099 C16.61067203 157.40500902 19.44938671 164.42229823 22.83349609 171.31689453 C23.09984863 172.01153809 23.36620117 172.70618164 23.640625 173.421875 C23.310625 174.081875 22.980625 174.741875 22.640625 175.421875 C21.320625 174.101875 20.000625 172.781875 18.640625 171.421875 C17.650625 172.081875 16.660625 172.741875 15.640625 173.421875 C15.66125 172.6175 15.681875 171.813125 15.703125 170.984375 C15.93696121 168.48832615 15.93696121 168.48832615 14.640625 167.421875 C13.980625 169.071875 13.320625 170.721875 12.640625 172.421875 C11.980625 172.421875 11.320625 172.421875 10.640625 172.421875 C10.310625 173.411875 9.980625 174.401875 9.640625 175.421875 C-6.4952731 143.8972072 -18.84423618 107.55198826 -24.359375 72.421875 C-24.47216797 71.70918457 -24.58496094 70.99649414 -24.70117188 70.26220703 C-26.25607574 59.84481114 -26.55149339 49.44461395 -26.609375 38.921875 C-26.6187207 37.75277588 -26.62806641 36.58367676 -26.63769531 35.37915039 C-26.59880339 24.88356552 -26.39970486 12.61084832 -18.61328125 4.6328125 C-12.6477006 -0.60102333 -7.8933987 -1.93414405 0 0 Z " fill="#F5F8FA" transform="translate(241.359375,88.578125)"/>
<path d="M0 0 C9.49478842 3.32317595 17.50882207 11.13138679 25.078125 17.625 C34.86672651 26.00027402 45.07216534 34.40847554 58 37 C58 37.33 58 37.66 58 38 C42.75399051 37.00026167 31.62748613 29.62144188 19.5 21 C7.38431055 11.71047785 7.38431055 11.71047785 -7 8 C-16.75613329 26.66390717 -11.04900806 55.28057355 -5.9921875 75.01953125 C-5.06167693 78.65515651 -4.35752312 82.30660093 -3.6875 86 C-0.36602052 102.71284118 4.7614024 118.89992648 10.625 134.875 C10.85461426 135.50262238 11.08422852 136.13024475 11.32080078 136.77688599 C13.97004703 143.98313402 16.80876171 151.00042323 20.19287109 157.89501953 C20.45922363 158.58966309 20.72557617 159.28430664 21 160 C20.67 160.66 20.34 161.32 20 162 C12.47347815 149.3187911 5.61512286 136.64240139 0 123 C-0.39574219 122.04867187 -0.79148438 121.09734375 -1.19921875 120.1171875 C-1.84248693 118.53571394 -2.47216068 116.9486199 -3.0859375 115.35546875 C-3.72818878 113.7004366 -4.40314238 112.05790485 -5.1015625 110.42578125 C-9.964141 98.67716415 -12.9683513 86.32188505 -16 74 C-16.23170898 73.0807373 -16.46341797 72.16147461 -16.70214844 71.21435547 C-19.70686464 58.92001978 -20.38106355 46.84998462 -20.4375 34.25 C-20.44385468 33.51612061 -20.45020935 32.78224121 -20.45675659 32.02612305 C-20.51583956 21.08119572 -20.0705472 10.838184 -13 2 C-8.69710594 -0.86859604 -5.04683731 -0.56919218 0 0 Z " fill="#36A5FA" transform="translate(244,102)"/>
<path d="M0 0 C1.68933922 1.6436814 3.35259924 3.3142876 5 5 C5.61875 5.61875 6.2375 6.2375 6.875 6.875 C8 9 8 9 8.125 12.4375 C6.78993955 16.66519141 5.36717338 17.78470017 1.7890625 20.15234375 C0 21 0 21 -3 21 C-2.34 21.86625 -1.68 22.7325 -1 23.625 C1.1911418 27.32255179 2.06569803 28.82601605 1 33 C-4.1900502 38.79688684 -12.40409913 39.34824365 -19.70947266 39.88427734 C-27.13348433 40.25935532 -34.57092347 40.13575977 -42 40 C-39.68353775 37.68353775 -39.10789798 37.70667279 -35.96484375 37.47265625 C-35.15466797 37.40240234 -34.34449219 37.33214844 -33.50976562 37.25976562 C-31.82240261 37.13036269 -30.13490513 37.00269881 -28.44726562 36.87695312 C-20.77971833 36.20732468 -13.35595971 34.56834604 -7 30 C-6.67 29.34 -6.34 28.68 -6 28 C-5.34 28 -4.68 28 -4 28 C-4 26.02 -4 24.04 -4 22 C-5.22227295 22.21438721 -5.22227295 22.21438721 -6.46923828 22.43310547 C-16.0262324 23.97022561 -25.22174641 24.24135716 -34.875 24.125 C-36.3528584 24.11493329 -37.83072358 24.10581407 -39.30859375 24.09765625 C-42.87254028 24.07597371 -46.43622415 24.04165536 -50 24 C-50 23.67 -50 23.34 -50 23 C-49.27522461 22.92483154 -48.55044922 22.84966309 -47.80371094 22.7722168 C-44.45148175 22.4194488 -41.10080504 22.05353903 -37.75 21.6875 C-36.04070312 21.51057617 -36.04070312 21.51057617 -34.296875 21.33007812 C-23.42998687 20.12607632 -13.66596382 18.19098057 -4 13 C-3.34 13 -2.68 13 -2 13 C0.24828052 8.50343896 0.16682272 4.92127034 0 0 Z " fill="#38A5F9" transform="translate(370,202)"/>
<path d="M0 0 C0 0.99 0 1.98 0 3 C-1.32 3.33 -2.64 3.66 -4 4 C-4 4.99 -4 5.98 -4 7 C-3.01 7.33 -2.02 7.66 -1 8 C-0.63275135 13.50872968 -0.63275135 13.50872968 -2.19140625 15.59375 C-10.28217489 21.88462843 -23.33043636 20.30933438 -33 20 C-33 19.67 -33 19.34 -33 19 C-30.36 19 -27.72 19 -25 19 C-25 17.68 -25 16.36 -25 15 C-25.66 14.34 -26.32 13.68 -27 13 C-26.34 13 -25.68 13 -25 13 C-25 11.35 -25 9.7 -25 8 C-27.64 7.67 -30.28 7.34 -33 7 C-33 6.67 -33 6.34 -33 6 C-31.80455566 5.83395264 -31.80455566 5.83395264 -30.58496094 5.66455078 C-26.97225092 5.1586029 -23.36115474 4.64192672 -19.75 4.125 C-18.49574219 3.95097656 -17.24148438 3.77695313 -15.94921875 3.59765625 C-14.74394531 3.42363281 -13.53867187 3.24960938 -12.296875 3.0703125 C-10.63156738 2.83465576 -10.63156738 2.83465576 -8.93261719 2.59423828 C-5.78085755 1.95559501 -3.14378192 0 0 0 Z " fill="#F5FAFB" transform="translate(369,237)"/>
<path d="M0 0 C0.99 0.33 1.98 0.66 3 1 C3.9488318 9.38134757 0.49914664 15.16053696 -4.3359375 21.84765625 C-6.24263686 24.0276087 -7.53712579 24.95252572 -10.4375 25.25 C-15.15343351 22.94954463 -18.0625745 18.874851 -20.375 14.25 C-21 12 -21 12 -21 9 C-19.73542969 8.76925781 -18.47085937 8.53851563 -17.16796875 8.30078125 C-15.50759375 7.97245851 -13.84744889 7.64297037 -12.1875 7.3125 C-11.35412109 7.16361328 -10.52074219 7.01472656 -9.66210938 6.86132812 C-4.57110504 5.88465004 -4.57110504 5.88465004 -0.92578125 2.35546875 C-0.62027344 1.57816406 -0.31476563 0.80085938 0 0 Z " fill="#33A3FB" transform="translate(355,263)"/>
<path d="M0 0 C7.00243242 3.50121621 12.82347208 8.65427917 16 16 C15.1875 18.3125 15.1875 18.3125 14 20 C13.79375 19.195625 13.5875 18.39125 13.375 17.5625 C12.92125 16.716875 12.4675 15.87125 12 15 C8.94727535 14.10169161 8.94727535 14.10169161 6 14 C6.33 14.99 6.66 15.98 7 17 C6.67 17.66 6.34 18.32 6 19 C5.01 19 4.02 19 3 19 C2 18 1 17 0 16 C-1.90178785 15.39938767 -1.90178785 15.39938767 -4 15 C-4.69738281 14.66355469 -5.39476562 14.32710937 -6.11328125 13.98046875 C-9.86823763 12.70510468 -13.40048352 12.78410417 -17.3125 12.875 C-18.42334961 12.88853516 -18.42334961 12.88853516 -19.55664062 12.90234375 C-21.37123467 12.92575787 -23.18566071 12.96162385 -25 13 C-24.67 12.01 -24.34 11.02 -24 10 C-24 9.01 -24 8.02 -24 7 C-22.35 7 -20.7 7 -19 7 C-19 7.99 -19 8.98 -19 10 C-16.36 10.33 -13.72 10.66 -11 11 C-11 10.34 -11 9.68 -11 9 C-8.03 9 -5.06 9 -2 9 C-1.67 7.68 -1.34 6.36 -1 5 C-0.34 5 0.32 5 1 5 C0.67 3.35 0.34 1.7 0 0 Z " fill="#07189F" transform="translate(385,74)"/>
<path d="M0 0 C0 1.98 0 3.96 0 6 C-0.66 6 -1.32 6 -2 6 C-2.38091797 6.91845703 -2.38091797 6.91845703 -2.76953125 7.85546875 C-4.83484679 11.45501868 -8.13043216 12.78424709 -12 14 C-14.56348527 14.03366679 -16.48472408 13.62881898 -19 13 C-19 12.67 -19 12.34 -19 12 C-17.35 12 -15.7 12 -14 12 C-13.67 10.02 -13.34 8.04 -13 6 C-15.475 5.01 -15.475 5.01 -18 4 C-16.68 3.67 -15.36 3.34 -14 3 C-14 2.34 -14 1.68 -14 1 C-9.27616037 0.34843591 -4.78025483 -0.11950637 0 0 Z " fill="#F1F9FA" transform="translate(366,224)"/>
<path d="M0 0 C0.33 0 0.66 0 1 0 C1.33 1.98 1.66 3.96 2 6 C2.66 5.34 3.32 4.68 4 4 C4.66 4.66 5.32 5.32 6 6 C0.17591866 18.32399465 -7.37386341 27.38674391 -18 36 C-18.66 35.67 -19.32 35.34 -20 35 C-19.43152344 34.41734375 -18.86304688 33.8346875 -18.27734375 33.234375 C-8.89022897 23.26742175 -3.43922097 13.24420499 0 0 Z " fill="#0E19A0" transform="translate(393,156)"/>
<path d="M0 0 C1.68933922 1.6436814 3.35259924 3.3142876 5 5 C5.928125 5.928125 5.928125 5.928125 6.875 6.875 C8.66931002 10.26425225 8.09145353 12.40462368 7 16 C4.5 18.5625 4.5 18.5625 1 20 C-2.14060682 19.72890527 -5.01125382 18.98296541 -8 18 C-7.505 16.515 -7.505 16.515 -7 15 C-6.195625 14.71125 -5.39125 14.4225 -4.5625 14.125 C-1.86394485 13.22949848 -1.86394485 13.22949848 -0.6875 10.875 C0.20688816 7.13483134 0.13026736 3.84288702 0 0 Z " fill="#32A3F9" transform="translate(370,202)"/>
<path d="M0 0 C0.66 0.33 1.32 0.66 2 1 C1.29875 1.44988281 0.5975 1.89976562 -0.125 2.36328125 C-10.25602352 9.23200508 -16.70098967 17.54540011 -21 29 C-21.66 28.34 -22.32 27.68 -23 27 C-24.32 27 -25.64 27 -27 27 C-23.30645122 15.18064389 -12.78078013 7.12958843 -2.57421875 1.1875 C-1.29998047 0.5996875 -1.29998047 0.5996875 0 0 Z " fill="#131DA1" transform="translate(309,223)"/>
<path d="M0 0 C0.66 0.33 1.32 0.66 2 1 C2.4140625 3.06640625 2.4140625 3.06640625 2.625 5.5625 C2.69976562 6.38878906 2.77453125 7.21507812 2.8515625 8.06640625 C2.90054687 8.70449219 2.94953125 9.34257812 3 10 C2.01 10 1.02 10 0 10 C-0.33 11.32 -0.66 12.64 -1 14 C-0.34 14.33 0.32 14.66 1 15 C1.66 14.34 2.32 13.68 3 13 C3.95465783 15.16967689 4.14401212 16.56328793 3.3984375 18.82421875 C2.64129615 20.5684743 1.82390802 22.28627131 1 24 C0.01 22.68 -0.98 21.36 -2 20 C-2.66 20.66 -3.32 21.32 -4 22 C-4.66 22 -5.32 22 -6 22 C-6.33 22.33 -6.66 22.66 -7 23 C-8.66617115 23.04063832 -10.33388095 23.042721 -12 23 C-11.01 22.67 -10.02 22.34 -9 22 C-8.89558594 21.29875 -8.79117187 20.5975 -8.68359375 19.875 C-7.90302914 16.59216828 -6.62205643 13.98946759 -5.0625 11 C-3.18433108 7.38210214 -1.45026887 3.81133463 0 0 Z " fill="#0316A2" transform="translate(275,263)"/>
<path d="M0 0 C-0.33 1.32 -0.66 2.64 -1 4 C-12.73158438 5.99081432 -24.12216874 6.21705681 -36 6 C-33.68353775 3.68353775 -33.10789798 3.70667279 -29.96484375 3.47265625 C-29.15466797 3.40240234 -28.34449219 3.33214844 -27.50976562 3.25976562 C-25.82240261 3.13036269 -24.13490513 3.00269881 -22.44726562 2.87695312 C-17.27648796 2.42537459 -12.81590838 1.46415605 -7.96728516 -0.41162109 C-5.11872387 -1.26357353 -2.81626697 -0.79433171 0 0 Z " fill="#55B2FB" transform="translate(364,236)"/>
<path d="M0 0 C2.0625 1.6875 2.0625 1.6875 4 4 C4.0625 6.5625 4.0625 6.5625 3 9 C-2.77788072 13.62230457 -9.84331597 13.13996771 -16.875 13.0625 C-17.65875 13.05798828 -18.4425 13.05347656 -19.25 13.04882812 C-21.16670014 13.03714093 -23.08336048 13.01920908 -25 13 C-25 12.67 -25 12.34 -25 12 C-23.84242188 11.81824219 -22.68484375 11.63648438 -21.4921875 11.44921875 C-19.95304092 11.19582267 -18.41398298 10.94188781 -16.875 10.6875 C-16.11445313 10.56955078 -15.35390625 10.45160156 -14.5703125 10.33007812 C-9.93242289 9.55043289 -6.04452381 8.54655203 -2 6 C-0.56031273 2.93638223 -0.56031273 2.93638223 0 0 Z " fill="#3FA9FA" transform="translate(361,244)"/>
<path d="M0 0 C-0.875 4.75 -0.875 4.75 -2 7 C-2.66 7 -3.32 7 -4 7 C-3.67 7.99 -3.34 8.98 -3 10 C-2.88340402 11.49676706 -2.82501041 12.99875061 -2.8125 14.5 C-2.79832031 15.2734375 -2.78414063 16.046875 -2.76953125 16.84375 C-3 19 -3 19 -5 22 C-5.33 20.02 -5.66 18.04 -6 16 C-6.99 16 -7.98 16 -9 16 C-9 14.02 -9 12.04 -9 10 C-8.34 10 -7.68 10 -7 10 C-6.896875 8.906875 -6.79375 7.81375 -6.6875 6.6875 C-6 3 -6 3 -4.625 1.0625 C-3 0 -3 0 0 0 Z " fill="#02149B" transform="translate(404,101)"/>
<path d="M0 0 C0.37125 0.495 0.7425 0.99 1.125 1.5 C-2.3812443 2.6687481 -5.5227866 2.62514267 -9.16796875 2.59765625 C-10.22701164 2.59553383 -10.22701164 2.59553383 -11.30744934 2.59336853 C-13.55917626 2.58777764 -15.81080321 2.57522688 -18.0625 2.5625 C-19.59049335 2.55748382 -21.11848827 2.55292112 -22.64648438 2.54882812 C-26.38936135 2.5378112 -30.13216373 2.52055287 -33.875 2.5 C-33.875 2.17 -33.875 1.84 -33.875 1.5 C-29.66732825 0.99432626 -25.45876747 0.4964646 -21.25 0 C-19.46529297 -0.21462891 -19.46529297 -0.21462891 -17.64453125 -0.43359375 C-16.49082031 -0.56894531 -15.33710938 -0.70429688 -14.1484375 -0.84375 C-13.09060059 -0.96943359 -12.03276367 -1.09511719 -10.94287109 -1.22460938 C-2.48032341 -1.98425873 -2.48032341 -1.98425873 0 0 Z " fill="#46ACFB" transform="translate(353.875,223.5)"/>
<path d="M0 0 C2 3.75 2 3.75 2 6 C-2 10 -2 10 -4 11 C-4.33 11.99 -4.66 12.98 -5 14 C-5.66 14 -6.32 14 -7 14 C-7.33 14.99 -7.66 15.98 -8 17 C-8.639375 17.45375 -9.27875 17.9075 -9.9375 18.375 C-12.42275091 20.33307647 -13.03757448 22.03252131 -14 25 C-15.98 25 -17.96 25 -20 25 C-18.9790625 23.9790625 -18.9790625 23.9790625 -17.9375 22.9375 C-17.47988281 22.47472656 -17.02226562 22.01195312 -16.55078125 21.53515625 C-15.50614313 20.50104345 -14.44020039 19.48806924 -13.35546875 18.49609375 C-7.71151387 13.2088674 -3.45744363 6.91488725 0 0 Z " fill="#EFF1F5" transform="translate(396,166)"/>
<path d="M0 0 C0 0.99 0 1.98 0 3 C-1.32 3.33 -2.64 3.66 -4 4 C-4 4.99 -4 5.98 -4 7 C-3.01 7.33 -2.02 7.66 -1 8 C-0.63076923 13.53846154 -0.63076923 13.53846154 -2.5 15.875 C-3.2425 16.431875 -3.2425 16.431875 -4 17 C-4.66 16.67 -5.32 16.34 -6 16 C-5.773125 15.236875 -5.54625 14.47375 -5.3125 13.6875 C-5.209375 12.800625 -5.10625 11.91375 -5 11 C-6.33333333 9.33333333 -6.33333333 9.33333333 -8 8 C-8.33 7.01 -8.66 6.02 -9 5 C-6.45523312 2.20075644 -3.92372883 0 0 0 Z " fill="#EAF5F9" transform="translate(369,237)"/>
<path d="M0 0 C1.68933922 1.6436814 3.35259924 3.3142876 5 5 C5.61875 5.61875 6.2375 6.2375 6.875 6.875 C8.61045344 10.15307872 7.90661831 12.50304364 7 16 C6.01 16.66 5.02 17.32 4 18 C2.6728739 14.0186217 2.93084087 10.14954773 3 6 C2.34 6 1.68 6 1 6 C0.67 4.02 0.34 2.04 0 0 Z " fill="#3EA8F8" transform="translate(370,202)"/>
<path d="M0 0 C0.75023437 0.47050781 1.50046875 0.94101563 2.2734375 1.42578125 C8.70304042 5.33698806 14.65665382 8.29413418 22 10 C22 10.33 22 10.66 22 11 C14.6086301 10.51532001 5.4599153 9.4599153 0 4 C0 2.68 0 1.36 0 0 Z " fill="#42AAF9" transform="translate(280,129)"/>
<path d="M0 0 C0.99 0 1.98 0 3 0 C3.33 0.99 3.66 1.98 4 3 C-5.41002278 12.59453303 -5.41002278 12.59453303 -10 16 C-10.66 15.67 -11.32 15.34 -12 15 C-11.38511719 14.33613281 -10.77023437 13.67226562 -10.13671875 12.98828125 C-9.32847656 12.10527344 -8.52023437 11.22226563 -7.6875 10.3125 C-6.48673828 9.00732422 -6.48673828 9.00732422 -5.26171875 7.67578125 C-2.93771971 5.09360676 -2.93771971 5.09360676 -1.39453125 2.16796875 C-0.93433594 1.45253906 -0.47414063 0.73710937 0 0 Z " fill="#232BA3" transform="translate(385,176)"/>
<path d="M0 0 C0.66 0 1.32 0 2 0 C2 8.91 2 17.82 2 27 C1.67 27 1.34 27 1 27 C-2.84834123 5.69668246 -2.84834123 5.69668246 0 0 Z " fill="#141FA5" transform="translate(195,128)"/>
<path d="M0 0 C0.66 0.33 1.32 0.66 2 1 C2 3.31 2 5.62 2 8 C1.01 8.33 0.02 8.66 -1 9 C-2.01984911 10.79517687 -2.01984911 10.79517687 -2.6875 12.9375 C-2.93886719 13.64777344 -3.19023437 14.35804688 -3.44921875 15.08984375 C-4.092352 16.98895491 -4.092352 16.98895491 -4 19 C-5.65 19 -7.3 19 -9 19 C-8.51789063 18.04738281 -8.03578125 17.09476562 -7.5390625 16.11328125 C-6.90093396 14.84640841 -6.26291914 13.57947829 -5.625 12.3125 C-5.30789063 11.68666016 -4.99078125 11.06082031 -4.6640625 10.41601562 C-2.94527919 6.99635299 -1.35530783 3.57992926 0 0 Z " fill="#1823A4" transform="translate(275,263)"/>
<path d="M0 0 C5.45625 0.60625 5.45625 0.60625 7.8125 2.3125 C9.13901127 4.19754233 9.61053706 5.74111492 10 8 C9.01 7.67 8.02 7.34 7 7 C7 6.34 7 5.68 7 5 C6.34 5 5.68 5 5 5 C4.67 5.66 4.34 6.32 4 7 C3.01 7.66 2.02 8.32 1 9 C-0.61949011 6.42786866 -1.04408751 5.32330841 -0.625 2.25 C-0.41875 1.5075 -0.2125 0.765 0 0 Z " fill="#01139C" transform="translate(391,88)"/>
<path d="M0 0 C0.66 0.33 1.32 0.66 2 1 C3.17222763 5.68891053 3.80742896 11.19387525 3 16 C2.01 16.66 1.02 17.32 0 18 C-0.33 17.34 -0.66 16.68 -1 16 C-1.66 16.99 -2.32 17.98 -3 19 C-3.25 13.375 -3.25 13.375 -1 10 C-0.34 9.67 0.32 9.34 1 9 C0.835 7.88625 0.67 6.7725 0.5 5.625 C0 2 0 2 0 0 Z " fill="#021599" transform="translate(276,262)"/>
<path d="M0 0 C3.42925666 2.72081741 4.61362113 6.47677597 6.125 10.4375 C6.38925781 11.10587891 6.65351563 11.77425781 6.92578125 12.46289062 C8.15220405 15.60365359 9.30695249 18.69534664 10 22 C6.71530729 18.91840572 4.86241876 15.49687994 2.75 11.5625 C2.18539063 10.55993164 2.18539063 10.55993164 1.609375 9.53710938 C-1.0946603 4.52172037 -1.0946603 4.52172037 -0.59667969 1.77709961 C-0.30132324 0.8974353 -0.30132324 0.8974353 0 0 Z " fill="#4AADFA" transform="translate(255,242)"/>
<path d="M0 0 C0.99 0 1.98 0 3 0 C3 1.98 3 3.96 3 6 C2.01 6.495 2.01 6.495 1 7 C0.34227572 10.02934491 0.34227572 10.02934491 0 13 C-0.66 11.68 -1.32 10.36 -2 9 C-2.99 9.495 -2.99 9.495 -4 10 C-4 8.02 -4 6.04 -4 4 C-2.68 4 -1.36 4 0 4 C0 2.68 0 1.36 0 0 Z " fill="#2BA2FC" transform="translate(230,152)"/>
<path d="M0 0 C3.26460973 1.80412643 4.88929795 2.83394693 7 6 C6.34 6 5.68 6 5 6 C5.33 6.99 5.66 7.98 6 9 C3.5625 8.625 3.5625 8.625 1 8 C0.67 7.34 0.34 6.68 0 6 C-0.66 5.67 -1.32 5.34 -2 5 C-1.125 1.125 -1.125 1.125 0 0 Z " fill="#F7F8F7" transform="translate(378,87)"/>
<path d="M0 0 C1.20628008 2.33214148 2.1654738 4.49642139 3 7 C-2.75 12 -2.75 12 -5 12 C-3.85814266 7.52040582 -2.56984833 3.85477249 0 0 Z " fill="#1521A4" transform="translate(203,83)"/>
<path d="M0 0 C0.66 0.33 1.32 0.66 2 1 C2 1.99 2 2.98 2 4 C0.68 3.67 -0.64 3.34 -2 3 C-2.185625 3.763125 -2.37125 4.52625 -2.5625 5.3125 C-4.59276341 9.10820986 -6.99960894 9.71416002 -11 11 C-11.66 10.67 -12.32 10.34 -13 10 C-8.71 6.7 -4.42 3.4 0 0 Z " fill="#E8E9F3" transform="translate(351,91)"/>
<path d="M0 0 C4.28477792 2.30718811 7.72291137 4.32966073 11 8 C9.35 8.33 7.7 8.66 6 9 C5.67 8.01 5.34 7.02 5 6 C1.48809191 4.77030122 1.48809191 4.77030122 -2 4 C-1.34 2.68 -0.68 1.36 0 0 Z " fill="#EDF6F8" transform="translate(251,114)"/>
<path d="M0 0 C0.33 0 0.66 0 1 0 C1.33 1.98 1.66 3.96 2 6 C2.66 5.34 3.32 4.68 4 4 C4.66 4.66 5.32 5.32 6 6 C5.01 7.98 4.02 9.96 3 12 C2.34 11.67 1.68 11.34 1 11 C1 10.34 1 9.68 1 9 C0.01 9.33 -0.98 9.66 -2 10 C-1.34 6.7 -0.68 3.4 0 0 Z " fill="#1C25A3" transform="translate(393,156)"/>
<path d="M0 0 C0.33 0 0.66 0 1 0 C0.03644647 9.41002278 0.03644647 9.41002278 -1 14 C-1.33 14 -1.66 14 -2 14 C-2 12.35 -2 10.7 -2 9 C-3.32 8.67 -4.64 8.34 -6 8 C-6.33 6.68 -6.66 5.36 -7 4 C-6.34 4 -5.68 4 -5 4 C-5 4.99 -5 5.98 -5 7 C-4.34 7 -3.68 7 -3 7 C-2.67 6.01 -2.34 5.02 -2 4 C-1.34 4 -0.68 4 0 4 C0 2.68 0 1.36 0 0 Z " fill="#2BA0FC" transform="translate(233,111)"/>
<path d="M0 0 C2.94194821 2.73905523 5.33889284 5.30865076 7 9 C6.1875 11.3125 6.1875 11.3125 5 13 C4.731875 12.195625 4.46375 11.39125 4.1875 10.5625 C3.795625 9.716875 3.40375 8.87125 3 8 C2.01 7.67 1.02 7.34 0 7 C0 4.66666667 0 2.33333333 0 0 Z " fill="#1B24A8" transform="translate(394,81)"/>
<path d="M0 0 C2.0625 0.4375 2.0625 0.4375 4 1 C3.25 7.75 3.25 7.75 1 10 C0.63883954 8.5225254 0.28624952 7.04295325 -0.0625 5.5625 C-0.25972656 4.73878906 -0.45695312 3.91507813 -0.66015625 3.06640625 C-0.82837891 2.04353516 -0.82837891 2.04353516 -1 1 C-0.67 0.67 -0.34 0.34 0 0 Z " fill="#05139B" transform="translate(283,249)"/>
<path d="M0 0 C0.66 0 1.32 0 2 0 C2.33 1.65 2.66 3.3 3 5 C2.01 5 1.02 5 0 5 C-0.33 6.65 -0.66 8.3 -1 10 C-1.66 10 -2.32 10 -3 10 C-3 10.99 -3 11.98 -3 13 C-3.66 13 -4.32 13 -5 13 C-4.54554036 11.58208592 -4.08625056 10.16571954 -3.625 8.75 C-3.24214844 7.56664062 -3.24214844 7.56664062 -2.8515625 6.359375 C-2.04826333 4.13372042 -1.10288338 2.09068328 0 0 Z " fill="#E1E4F0" transform="translate(291,243)"/>
<path d="M0 0 C2.21399303 3.79541663 3.00980198 7.75629421 4 12 C0.28204357 10.38888555 -1.1675353 8.6649294 -3 5 C-1.5625 2.375 -1.5625 2.375 0 0 Z " fill="#1F2AA7" transform="translate(228,205)"/>
<path d="M0 0 C0.33 0 0.66 0 1 0 C1.50690584 2.06081361 2.00524619 4.12373526 2.5 6.1875 C2.7784375 7.33605469 3.056875 8.48460937 3.34375 9.66796875 C3.91495385 12.56818829 4.13283779 15.06096385 4 18 C3.34 18 2.68 18 2 18 C1.67 15.36 1.34 12.72 1 10 C0.34 10 -0.32 10 -1 10 C-0.67 6.7 -0.34 3.4 0 0 Z " fill="#1F26A8" transform="translate(220,174)"/>
<path d="M0 0 C0.33 0.99 0.66 1.98 1 3 C3.97 3.495 3.97 3.495 7 4 C7.33 5.32 7.66 6.64 8 8 C4.60406522 8 3.93380119 7.47834052 1.3125 5.5 C0.68988281 5.0359375 0.06726563 4.571875 -0.57421875 4.09375 C-1.04472656 3.7328125 -1.51523437 3.371875 -2 3 C-1.34 2.67 -0.68 2.34 0 2 C0 1.34 0 0.68 0 0 Z " fill="#121DA0" transform="translate(272,105)"/>
<path d="M0 0 C1.65 0 3.3 0 5 0 C5 0.99 5 1.98 5 3 C7.31 3.33 9.62 3.66 12 4 C12 4.33 12 4.66 12 5 C5.565 5.495 5.565 5.495 -1 6 C-0.67 5.01 -0.34 4.02 0 3 C0 2.01 0 1.02 0 0 Z " fill="#2F3BAE" transform="translate(361,81)"/>
<path d="M0 0 C0.66 0.66 1.32 1.32 2 2 C1.071875 2.763125 0.14375 3.52625 -0.8125 4.3125 C-2.98276101 6.11848552 -5.05568065 7.9476629 -7 10 C-8 8 -8 8 -8 5 C-5.59078295 2.59078295 -3.05665491 1.46187844 0 0 Z " fill="#EEF0F4" transform="translate(210,73)"/>
<path d="M0 0 C0 4.38968456 -2.12805101 5.76905739 -5 9 C-6.32 8.34 -7.64 7.68 -9 7 C-9 6.34 -9 5.68 -9 5 C-6.03 3.35 -3.06 1.7 0 0 Z " fill="#EEF7F9" transform="translate(376,218)"/>
<path d="M0 0 C-1.485 2.475 -1.485 2.475 -3 5 C-5.31 4.34 -7.62 3.68 -10 3 C-4.375 -1.3125 -4.375 -1.3125 0 0 Z " fill="#1522A3" transform="translate(354,73)"/>
<path d="M0 0 C6.52307692 -0.36923077 6.52307692 -0.36923077 8.9375 1.5 C9.288125 1.995 9.63875 2.49 10 3 C3.6 4.23076923 3.6 4.23076923 0.5625 3.0625 C0.046875 2.711875 -0.46875 2.36125 -1 2 C-0.67 1.34 -0.34 0.68 0 0 Z " fill="#34A4FB" transform="translate(352,221)"/>
<path d="M0 0 C1.32 0 2.64 0 4 0 C6.72919661 3.18406272 7.9379775 5.16269626 8.25 9.375 C8.1675 10.24125 8.085 11.1075 8 12 C4.7089159 8.39042389 3.45336079 5.87362847 3 1 C2.01 0.67 1.02 0.34 0 0 Z " fill="#4BADF8" transform="translate(363,223)"/>
<path d="M0 0 C0.66 0.33 1.32 0.66 2 1 C1.67 4.3 1.34 7.6 1 11 C-0.32 11.33 -1.64 11.66 -3 12 C-2.01 8.04 -1.02 4.08 0 0 Z " fill="#DCE1EF" transform="translate(282,267)"/>
<path d="M0 0 C2.18975773 3.28463659 2.99806563 6.20696275 4 10 C2.68 10.33 1.36 10.66 0 11 C-0.19406478 9.35492782 -0.38007935 7.70890406 -0.5625 6.0625 C-0.66691406 5.14597656 -0.77132812 4.22945312 -0.87890625 3.28515625 C-0.91886719 2.53105469 -0.95882812 1.77695313 -1 1 C-0.67 0.67 -0.34 0.34 0 0 Z " fill="#1A25A6" transform="translate(235,227)"/>
<path d="M0 0 C0.66 0.66 1.32 1.32 2 2 C1.566875 2.48210937 1.13375 2.96421875 0.6875 3.4609375 C0.130625 4.09257812 -0.42625 4.72421875 -1 5.375 C-1.556875 6.00148437 -2.11375 6.62796875 -2.6875 7.2734375 C-4.20172487 8.90389833 -4.20172487 8.90389833 -4 11 C-4.66 11 -5.32 11 -6 11 C-6.33 9.68 -6.66 8.36 -7 7 C-6.01 6.67 -5.02 6.34 -4 6 C-3.65657551 4.66923011 -3.32380126 3.33568021 -3 2 C-2.01 1.34 -1.02 0.68 0 0 Z " fill="#F0F3F3" transform="translate(378,183)"/>
<path d="M0 0 C0.79921875 0.01804687 1.5984375 0.03609375 2.421875 0.0546875 C3.02515625 0.07789062 3.6284375 0.10109375 4.25 0.125 C0.55827405 3.66290403 -2.84390595 3.71615883 -7.75 4.125 C-8.08 3.465 -8.41 2.805 -8.75 2.125 C-5.68753253 0.34090198 -3.52920727 -0.10380021 0 0 Z " fill="#E2E4F1" transform="translate(234.75,87.875)"/>
<path d="M0 0 C0.33 0 0.66 0 1 0 C1.125 2.875 1.125 2.875 1 6 C-1 8 -1 8 -4.125 8.125 C-5.548125 8.063125 -5.548125 8.063125 -7 8 C-6.21625 7.236875 -5.4325 6.47375 -4.625 5.6875 C-1.92742283 3.09108195 -1.92742283 3.09108195 0 0 Z " fill="#E3E7F3" transform="translate(276,285)"/>
<path d="M0 0 C1.2065625 0.0309375 1.2065625 0.0309375 2.4375 0.0625 C2.7675 1.3825 3.0975 2.7025 3.4375 4.0625 C2.7775 4.0625 2.1175 4.0625 1.4375 4.0625 C1.4375 5.0525 1.4375 6.0425 1.4375 7.0625 C0.7775 7.0625 0.1175 7.0625 -0.5625 7.0625 C-0.5625 6.4025 -0.5625 5.7425 -0.5625 5.0625 C-1.2225 4.7325 -1.8825 4.4025 -2.5625 4.0625 C-2.2325 3.7325 -1.9025 3.4025 -1.5625 3.0625 C-2.2225 2.4025 -2.8825 1.7425 -3.5625 1.0625 C-2.5625 0.0625 -2.5625 0.0625 0 0 Z " fill="#EDF7FC" transform="translate(355.5625,255.9375)"/>
<path d="M0 0 C2.64 0.33 5.28 0.66 8 1 C7.01 1.495 7.01 1.495 6 2 C6 2.66 6 3.32 6 4 C2.7 4 -0.6 4 -4 4 C-2.68 3.34 -1.36 2.68 0 2 C0 1.34 0 0.68 0 0 Z " fill="#011099" transform="translate(368,81)"/>
<path d="M0 0 C0.66 0.33 1.32 0.66 2 1 C2.33 1.99 2.66 2.98 3 4 C3.66 4.66 4.32 5.32 5 6 C3.25 6.75 3.25 6.75 1 7 C-1.25 5.0625 -1.25 5.0625 -3 3 C-2.01 2.01 -1.02 1.02 0 0 Z " fill="#141FA5" transform="translate(259,286)"/>
<path d="M0 0 C1.32 0.66 2.64 1.32 4 2 C1.36 3.98 -1.28 5.96 -4 8 C-4 5 -4 5 -3 3 C-2.34 3 -1.68 3 -1 3 C-0.67 2.01 -0.34 1.02 0 0 Z " fill="#1721A4" transform="translate(333,101)"/>
<path d="M0 0 C0.33 0 0.66 0 1 0 C1.41176754 3.60296594 1.1535853 4.78402067 -1 7.8125 C-1.66 8.534375 -2.32 9.25625 -3 10 C-3.99 9.67 -4.98 9.34 -6 9 C-5.071875 7.88625 -5.071875 7.88625 -4.125 6.75 C-2.39562719 4.51198812 -1.13893339 2.56260013 0 0 Z " fill="#EAECF4" transform="translate(269,272)"/>
<path d="M0 0 C2.31 0.33 4.62 0.66 7 1 C7 1.66 7 2.32 7 3 C5.02 3.66 3.04 4.32 1 5 C0.67 3.35 0.34 1.7 0 0 Z " fill="#F5FAF8" transform="translate(237,109)"/>
<path d="M0 0 C0.99 0.33 1.98 0.66 3 1 C3 3.64 3 6.28 3 9 C2.731875 8.360625 2.46375 7.72125 2.1875 7.0625 C1.11332248 4.66868314 1.11332248 4.66868314 -2 4 C-1.34 2.68 -0.68 1.36 0 0 Z " fill="#46AEF9" transform="translate(355,263)"/>
<path d="M0 0 C1.32 0.66 2.64 1.32 4 2 C4 2.66 4 3.32 4 4 C4.66 4 5.32 4 6 4 C6.33 4.99 6.66 5.98 7 7 C6.01 7.33 5.02 7.66 4 8 C2.35 5.69 0.7 3.38 -1 1 C-0.67 0.67 -0.34 0.34 0 0 Z " fill="#1C27A6" transform="translate(384,89)"/>
<path d="M0 0 C0.99 0.33 1.98 0.66 3 1 C3 2.65 3 4.3 3 6 C0.36 6.66 -2.28 7.32 -5 8 C-1.25 4.125 -1.25 4.125 1 3 C0.67 2.01 0.34 1.02 0 0 Z " fill="#EBF0F6" transform="translate(309,221)"/>
<path d="M0 0 C0.66 0 1.32 0 2 0 C2.80967438 2.91482778 3.21845993 4.46113217 2.0625 7.3125 C1.5365625 8.1478125 1.5365625 8.1478125 1 9 C-0.61949011 6.42786866 -1.04408751 5.32330841 -0.625 2.25 C-0.41875 1.5075 -0.2125 0.765 0 0 Z " fill="#3EA6F9" transform="translate(238,203)"/>
<path d="M0 0 C0.99 0.66 1.98 1.32 3 2 C1.35 3.98 -0.3 5.96 -2 8 C-2.12375 7.360625 -2.2475 6.72125 -2.375 6.0625 C-2.684375 5.0415625 -2.684375 5.0415625 -3 4 C-3.66 3.67 -4.32 3.34 -5 3 C-4.34 3 -3.68 3 -3 3 C-2.67 2.34 -2.34 1.68 -2 1 C-1.67 1.33 -1.34 1.66 -1 2 C-0.67 1.34 -0.34 0.68 0 0 Z " fill="#1924A6" transform="translate(222,90)"/>
<path d="M0 0 C0 0.99 0 1.98 0 3 C-3.63 2.34 -7.26 1.68 -11 1 C-6.8204355 -1.78637633 -4.85331323 -0.79562512 0 0 Z " fill="#E1E6EE" transform="translate(381,69)"/>
<path d="M0 0 C3.25543229 0.34879632 4.01873107 1.02133261 6.25 3.5625 C6.8275 4.366875 7.405 5.17125 8 6 C6.68 6 5.36 6 4 6 C1.75 3 1.75 3 0 0 Z " fill="#ECEEF3" transform="translate(246,283)"/>
<path d="M0 0 C1.1875 1.5625 1.1875 1.5625 2 4 C0.625 7.75 0.625 7.75 -1 11 C-2.1875 9.4375 -2.1875 9.4375 -3 7 C-1.625 3.25 -1.625 3.25 0 0 Z " fill="#161EA8" transform="translate(277,276)"/>
<path d="M0 0 C0.33 0 0.66 0 1 0 C1.33 2.64 1.66 5.28 2 8 C1.01 8.33 0.02 8.66 -1 9 C-1.66 9.66 -2.32 10.32 -3 11 C-2.67 8.69 -2.34 6.38 -2 4 C-1.34 4 -0.68 4 0 4 C0 2.68 0 1.36 0 0 Z " fill="#0115A3" transform="translate(397,153)"/>
<path d="M0 0 C5.445 1.485 5.445 1.485 11 3 C10.34 3.66 9.68 4.32 9 5 C5.875 4.625 5.875 4.625 3 4 C3 3.34 3 2.68 3 2 C2.01 2 1.02 2 0 2 C0 1.34 0 0.68 0 0 Z " fill="#E2F3FB" transform="translate(285,136)"/>
<path d="M0 0 C0.33 0 0.66 0 1 0 C0.67 3.63 0.34 7.26 0 11 C-0.66 10.34 -1.32 9.68 -2 9 C-2.99 9.495 -2.99 9.495 -4 10 C-4 9.01 -4 8.02 -4 7 C-3.34 7 -2.68 7 -2 7 C-1.34 4.69 -0.68 2.38 0 0 Z " fill="#1726A9" transform="translate(404,101)"/>
<path d="M0 0 C0.99 0.33 1.98 0.66 3 1 C3 2.98 3 4.96 3 7 C-0.875 5.25 -0.875 5.25 -2 3 C-1.34 2.01 -0.68 1.02 0 0 Z " fill="#F0F2F5" transform="translate(254,289)"/>
<path d="M0 0 C1.9375 0.6875 1.9375 0.6875 4 2 C4.75 4.625 4.75 4.625 5 7 C2.69 5.35 0.38 3.7 -2 2 C-1.34 1.34 -0.68 0.68 0 0 Z " fill="#111C9D" transform="translate(263,99)"/>
<path d="M0 0 C0.99 0.33 1.98 0.66 3 1 C2.6875 2.9375 2.6875 2.9375 2 5 C1.01 5.33 0.02 5.66 -1 6 C-1.625 4.125 -1.625 4.125 -2 2 C-1.34 1.34 -0.68 0.68 0 0 Z " fill="#EEEFF3" transform="translate(378,87)"/>
<path d="M0 0 C8.57142857 -0.14285714 8.57142857 -0.14285714 12 1 C12 1.66 12 2.32 12 3 C10.02 3 8.04 3 6 3 C6 2.34 6 1.68 6 1 C4.02 1 2.04 1 0 1 C0 0.67 0 0.34 0 0 Z " fill="#1926A9" transform="translate(226,67)"/>
<path d="M0 0 C0 0.99 0 1.98 0 3 C-2.31 3 -4.62 3 -7 3 C-7.33 2.34 -7.66 1.68 -8 1 C-5.29120665 -0.35439668 -2.99066732 -0.06501451 0 0 Z " fill="#2BA1FB" transform="translate(360,237)"/>
<path d="M0 0 C0.66 0.33 1.32 0.66 2 1 C-2.455 3.97 -2.455 3.97 -7 7 C-7.66 6.34 -8.32 5.68 -9 5 C-7.54735962 4.1361871 -6.0876837 3.28419546 -4.625 2.4375 C-3.40683594 1.72400391 -3.40683594 1.72400391 -2.1640625 0.99609375 C-1.44992187 0.66738281 -0.73578125 0.33867187 0 0 Z " fill="#3F41AD" transform="translate(309,223)"/>
<path d="M0 0 C-1.75 5.75 -1.75 5.75 -4 8 C-4.6875 5.6875 -4.6875 5.6875 -5 3 C-3.40083326 0.79162689 -2.76966516 0 0 0 Z " fill="#E9EBF3" transform="translate(390,167)"/>
<path d="M0 0 C3 1 3 1 4.1875 3.0625 C4.455625 3.701875 4.72375 4.34125 5 5 C3.35 5.33 1.7 5.66 0 6 C0.66 5.67 1.32 5.34 2 5 C1.34 4.34 0.68 3.68 0 3 C0 2.01 0 1.02 0 0 Z " fill="#43ABF9" transform="translate(343,282)"/>
<path d="M0 0 C1.5625 1.8125 1.5625 1.8125 3 4 C2.67 4.99 2.34 5.98 2 7 C1.01 7.33 0.02 7.66 -1 8 C-1.125 2.25 -1.125 2.25 0 0 Z " fill="#F4F8F8" transform="translate(355,276)"/>
<path d="M0 0 C0.66 0.33 1.32 0.66 2 1 C1.625 3.4375 1.625 3.4375 1 6 C0.01 6.495 0.01 6.495 -1 7 C-1.66 5.68 -2.32 4.36 -3 3 C-2.34 3 -1.68 3 -1 3 C-0.67 2.01 -0.34 1.02 0 0 Z " fill="#09179A" transform="translate(290,239)"/>
<path d="M0 0 C1.9451 2.91765 2.45276317 4.62537285 3 8 C2.34 8 1.68 8 1 8 C0.67 8.66 0.34 9.32 0 10 C-1.2380014 6.42355152 -0.74926071 3.66305234 0 0 Z " fill="#40AAFB" transform="translate(249,223)"/>
<path d="M0 0 C1.32 0 2.64 0 4 0 C3.38722388 2.96175123 2.74627478 4.38058783 1 7 C0.67 4.69 0.34 2.38 0 0 Z " fill="#E9F6FB" transform="translate(248,216)"/>
<path d="M0 0 C2.3125 -0.3125 2.3125 -0.3125 5 0 C6.8125 2.5 6.8125 2.5 8 5 C7.01 5 6.02 5 5 5 C4.731875 4.360625 4.46375 3.72125 4.1875 3.0625 C3.11332248 0.66868314 3.11332248 0.66868314 0 0 Z " fill="#0F1CA6" transform="translate(272,86)"/>
<path d="M0 0 C0.99 1.32 1.98 2.64 3 4 C2.01 4 1.02 4 0 4 C-2.15028304 4.94978897 -2.15028304 4.94978897 -4 6 C-2.84826645 3.53199953 -1.95216435 1.95216435 0 0 Z " fill="#1920A6" transform="translate(291,236)"/>
<path d="M0 0 C0.99 0.33 1.98 0.66 3 1 C-0.465 3.97 -0.465 3.97 -4 7 C-4.66 6.67 -5.32 6.34 -6 6 C-4.02 4.02 -2.04 2.04 0 0 Z " fill="#4847B2" transform="translate(379,185)"/>
<path d="M0 0 C0.99 0.33 1.98 0.66 3 1 C1.69593116 3.01920337 0.36176581 5.01924973 -1 7 C-1.33 7 -1.66 7 -2 7 C-2 5.35 -2 3.7 -2 2 C-1.34 2 -0.68 2 0 2 C0 1.34 0 0.68 0 0 Z " fill="#1B25A3" transform="translate(392,169)"/>
<path d="M0 0 C2.97 0.495 2.97 0.495 6 1 C6 2.32 6 3.64 6 5 C3.98079663 3.69593116 1.98075027 2.36176581 0 1 C0 0.67 0 0.34 0 0 Z " fill="#EDEDF6" transform="translate(388,75)"/>
</svg>
